<svg width="200" height="182" viewBox="0 0 200 182" fill="none" xmlns="http://www.w3.org/2000/svg">
<path fill-rule="evenodd" clip-rule="evenodd" d="M121.561 139.722C122.627 138.459 123.161 136.688 123.161 134.412V125.42H108.988V134.412C108.988 136.688 109.565 138.459 110.719 139.722C111.873 140.986 113.701 141.617 116.205 141.617C118.709 141.617 120.494 140.986 121.561 139.722ZM103.284 147.337C100.932 144.541 99.7569 140.55 99.7569 135.362V125.42H49.9491V115.507L132.457 115.507V136.01C132.457 140.736 131.216 144.505 128.734 147.314C126.252 150.125 121.786 151.53 116.582 151.53C110.9 151.53 105.635 150.132 103.284 147.337Z" fill="#F5222D"/>
<path fill-rule="evenodd" clip-rule="evenodd" d="M55.6474 27.3276H181.267V18.3095H55.6474V27.3276ZM18.4573 163.966H181.267V45.6371H18.4573V163.966ZM22.9931 18.095C25.5132 18.095 27.5562 20.1216 27.5562 22.6215C27.5562 25.1215 25.5132 27.1481 22.9931 27.1481C20.473 27.1481 18.43 25.1215 18.43 22.6215C18.43 20.1216 20.473 18.095 22.9931 18.095ZM41.7259 18.095C44.246 18.095 46.2889 20.1216 46.2889 22.6215C46.2889 25.1215 44.246 27.1481 41.7259 27.1481C39.2058 27.1481 37.1628 25.1215 37.1628 22.6215C37.1628 20.1216 39.2058 18.095 41.7259 18.095ZM9.30083 0C4.19477 0 0 3.96389 0 9.02305V172.928C0 177.985 4.19477 182 9.30083 182H190.639C195.748 182 200 177.985 200 172.928V9.02305C200 3.96389 195.748 0 190.639 0H9.30083Z" fill="#C4C4C4"/>
<circle cx="130.804" cy="83.3527" r="12.5457" stroke="#F5222D" stroke-width="8"/>
<circle cx="69.6166" cy="83.3527" r="12.5457" stroke="#F5222D" stroke-width="8"/>
</svg>
