<svg width="16" height="16" viewBox="0 0 16 16" xmlns="http://www.w3.org/2000/svg">
<g opacity="0.65">
<path d="M2 2C1.44772 2 1 2.44772 1 3C1 3.55228 1.44772 4 2 4C2.55228 4 3 3.55228 3 3C3 2.44772 2.55228 2 2 2Z"/>
<path d="M2 7C1.44772 7 1 7.44772 1 8C1 8.55228 1.44772 9 2 9C2.55228 9 3 8.55228 3 8C3 7.44772 2.55228 7 2 7Z"/>
<path d="M2 12C1.44772 12 1 12.4477 1 13C1 13.5523 1.44772 14 2 14C2.55228 14 3 13.5523 3 13C3 12.4477 2.55228 12 2 12Z"/>
</g>
<rect x="5" y="2" width="9" height="2" rx="1"/>
<rect x="5" y="7" width="9" height="2" rx="1"/>
<rect x="5" y="12" width="9" height="2" rx="1"/>
</svg>
