<svg width="14" height="14" xmlns="http://www.w3.org/2000/svg"><path fill-rule="evenodd" clip-rule="evenodd" d="M14 7c0 .30206-.2448.54688-.5469.54688h-1.6042V8.6041h1.6042c.3021 0 .5469.24491.5469.54687 0 .30206-.2448.54688-.5469.54688h-1.6042V11.302c0 .3021-.2448.5469-.5469.5469H9.69795v1.6042c0 .3021-.24481.5469-.54687.5469-.30207 0-.54688-.2448-.54688-.5469v-1.6042H7.54688v1.6042c0 .3021-.24482.5469-.54688.5469s-.54688-.2448-.54688-.5469v-1.6042H5.3959v1.6042c0 .3021-.24491.5469-.54687.5469-.30206 0-.54688-.2448-.54688-.5469V11.849h-1.6042c-.30206 0-.54687-.2449-.54687-.5468V9.69795H.546875C.244812 9.69795 0 9.45314 0 9.15108c0-.30207.244812-.54688.546875-.54688H2.15108V7.54688H.546875C.244812 7.54688 0 7.30206 0 7s.244812-.54688.546875-.54688H2.15108V5.3959H.546875C.244812 5.3959 0 5.15099 0 4.84903c0-.30206.244812-.54688.546875-.54688H2.15108v-1.6042c0-.30206.24481-.54687.54687-.54687h1.6041V.546875C4.30205.244812 4.54686 0 4.84892 0c.30207 0 .54688.244812.54688.546875V2.15108h1.05732V.546875C6.45312.244812 6.69794 0 7 0s.54688.244812.54688.546875V2.15108H8.6042V.546875C8.6042.244812 8.84901 0 9.15108 0c.30206 0 .54687.244812.54687.546875V2.15108H11.302c.3021 0 .5469.24481.5469.54687v1.6041h1.6042c.3021 0 .5469.24481.5469.54687 0 .30207-.2448.54688-.5469.54688h-1.6042v1.05732h1.6042c.3021 0 .5469.24482.5469.54688zm-3.2447-3.75517H3.24483v7.51037h7.51047V3.24483zM8.8082 4.58892c.16407-.16524.43125-.16524.59649-.00118.16523.16407.16523.43125 0 .59649L7.59531 6.99946l1.81055 1.81641c.16406.16523.16406.43242-.00117.59648-.08203.08203-.18985.12305-.29766.12305-.10781 0-.21679-.04102-.29883-.12422L7 7.59712 5.1918 9.41001c-.08203.0832-.19102.12422-.29883.12422-.10781 0-.21563-.04102-.29766-.12305-.16523-.16406-.16523-.43125-.00117-.59648l1.81055-1.81524-1.81055-1.81523c-.16406-.16524-.16406-.43242.00117-.59649.16524-.16406.43243-.16406.59649.00118L7 6.40181l1.8082-1.81289z"/></svg>