<svg width="200" height="182" viewBox="0 0 200 182" fill="none" xmlns="http://www.w3.org/2000/svg">
<path fill-rule="evenodd" clip-rule="evenodd" d="M122.561 139.722C123.627 138.459 124.161 136.688 124.161 134.412V125.42H109.988V134.412C109.988 136.688 110.565 138.459 111.719 139.722C112.873 140.986 114.702 141.617 117.205 141.617C119.709 141.617 121.494 140.986 122.561 139.722ZM104.284 147.337C101.933 144.542 100.757 140.55 100.757 135.362V125.42H50.9492V115.507L133.457 115.507V136.01C133.457 140.736 132.216 144.505 129.735 147.315C127.253 150.125 122.786 151.53 117.583 151.53C111.9 151.53 106.635 150.132 104.284 147.337Z" fill="#F5222D"/>
<path fill-rule="evenodd" clip-rule="evenodd" d="M56.6472 27.3276H182.267V18.3095H56.6472V27.3276ZM19.457 163.966H182.267V45.6372H19.457V163.966ZM23.9932 18.095C26.5133 18.095 28.5562 20.1216 28.5562 22.6215C28.5562 25.1215 26.5133 27.1481 23.9932 27.1481C21.473 27.1481 19.4301 25.1215 19.4301 22.6215C19.4301 20.1216 21.473 18.095 23.9932 18.095ZM42.7258 18.095C45.2459 18.095 47.2889 20.1216 47.2889 22.6215C47.2889 25.1215 45.2459 27.1481 42.7258 27.1481C40.2057 27.1481 38.1628 25.1215 38.1628 22.6215C38.1628 20.1216 40.2057 18.095 42.7258 18.095ZM9.30083 0C4.19477 0 0 3.96389 0 9.02305V172.928C0 177.985 4.19477 182 9.30083 182H190.639C195.748 182 200 177.985 200 172.928V9.02305C200 3.96389 195.748 0 190.639 0H9.30083Z" fill="#C4C4C4"/>
<path fill-rule="evenodd" clip-rule="evenodd" d="M82.7918 90.408L73.239 80.8505L82.79 71.2971L76.4193 64.9339L66.8676 74.4861L57.3173 64.9339L50.9492 71.2971L60.5016 80.8548L50.9492 90.408L57.3173 96.7764L66.8676 87.2237L76.4228 96.7764L82.7918 90.408Z" fill="#F5222D"/>
<path fill-rule="evenodd" clip-rule="evenodd" d="M151.471 90.408L141.919 80.8505L151.47 71.2971L145.099 64.9339L135.547 74.4861L125.997 64.9339L119.629 71.2971L129.181 80.8548L119.629 90.408L125.997 96.7764L135.547 87.2237L145.102 96.7764L151.471 90.408Z" fill="#F5222D"/>
</svg>
