<svg width="35" height="35" xmlns="http://www.w3.org/2000/svg"><g clip-path="url(#clip0)"><path d="M30.6 7.84L23.07.31c-.2-.2-.47-.31-.75-.31H5.15C4.57 0 4.1.48 4.1 1.06v32.88c0 .58.48 1.06 1.06 1.06h24.7c.58 0 1.06-.48 1.06-1.06V8.59c0-.28-.11-.55-.31-.75zm-7.22-4.22l3.9 3.91h-3.9v-3.9zM6.22 32.88V2.12h15.03V8.6c0 .59.48 1.06 1.07 1.06h6.46v23.23H6.22z"/><path d="M23.2 15.79a1.06 1.06 0 10-1.5 1.5l1.96 1.95-1.95 1.95a1.06 1.06 0 001.5 1.5l2.7-2.7c.41-.42.41-1.09 0-1.5l-2.7-2.7zM13.3 15.79a1.06 1.06 0 00-1.5 0l-2.7 2.7a1.06 1.06 0 000 1.5l2.7 2.7c.2.2.47.31.74.31.94 0 1.43-1.14.75-1.81l-1.95-1.95 1.95-1.95c.42-.42.42-1.09 0-1.5zM19.46 13.8c-.55-.2-1.16.09-1.36.64l-3.2 8.88a1.06 1.06 0 002 .72l3.2-8.88c.2-.55-.09-1.16-.64-1.36z"/></g></svg>