<svg width="14" height="14" fill="none" xmlns="http://www.w3.org/2000/svg"><path fill-rule="evenodd" clip-rule="evenodd" d="M12.727 4.407c.703 0 1.273.58 1.273 1.297l-.015.14-1.26 5.776a1.283 1.283 0 01-1.27 1.213H1.272C.57 12.833 0 12.253 0 11.537V2.463c0-.716.57-1.296 1.273-1.296H5.09c.713 0 1.166.308 1.622.893.03.04.166.219.2.26.1.127.12.143.088.143h4.453c.704 0 1.273.58 1.273 1.296v.648zm-1.273 0V3.76H6.997c-.457-.002-.755-.22-1.075-.624-.044-.056-.185-.241-.206-.27-.239-.306-.38-.402-.625-.402H1.273v3.17l.018-.085c.18-.738.512-1.14 1.254-1.14h8.91zm-10.166 7.13h10.166l.016-.14 1.242-5.693H2.569c-.01.032-.024.078-.039.14l-1.242 5.693z" fill="#000" fill-opacity=".65"/></svg>