<svg width="14" height="14" xmlns="http://www.w3.org/2000/svg"><path fill-rule="evenodd" clip-rule="evenodd" d="M1.273 6.352v5.185h11.454V6.352H1.273zm0-1.296h11.454V3.759h-5.73c-.457-.002-.755-.22-1.075-.624-.044-.056-.185-.241-.206-.27-.239-.306-.38-.402-.625-.402H1.273v2.593zm11.454-2.593c.703 0 1.273.58 1.273 1.296v7.778c0 .716-.57 1.296-1.273 1.296H1.273C.57 12.833 0 12.253 0 11.537V2.463c0-.716.57-1.296 1.273-1.296H5.09c.713 0 1.166.308 1.622.893.03.04.166.219.2.26.1.127.12.143.088.143h5.726z"/></svg>