<svg width="16" height="16" viewBox="0 0 16 16" xmlns="http://www.w3.org/2000/svg">
    <path d="M8 1C4.14026 1 1 4.14026 1 8C1 11.8597 4.14026 15 8 15C11.8597 15 15 11.8597 15 8C15 4.14026 11.8597 1 8 1ZM8 14.125C4.62263 14.125 1.87501 11.3774 1.87501 8.00003C1.87501 4.62266 4.62263 1.87501 8 1.87501C11.3774 1.87501 14.125 4.62263 14.125 8C14.125 11.3774 11.3774 14.125 8 14.125Z"/>
    <path d="M8.49863 3.99927H7.49878V8.20562L10.1448 10.8517L10.8518 10.1448L8.49863 7.79164V3.99927Z" />
</svg>
