<svg width="16" height="16" viewBox="0 0 16 16" xmlns="http://www.w3.org/2000/svg">
<g clip-path="url(#clip0)">
<path d="M13.1042 2.37492H12.4792V1.33325H11.4375V2.37492H4.56254V1.33325H3.52087V2.37492H2.89587C2.03426 2.37492 1.33337 3.07581 1.33337 3.93742V13.1041C1.33337 13.9657 2.03426 14.6666 2.89587 14.6666H13.1042C13.9658 14.6666 14.6667 13.9657 14.6667 13.1041V3.93742C14.6667 3.07581 13.9658 2.37492 13.1042 2.37492ZM2.89587 3.41659H3.52087V4.45825H4.56254V3.41659H11.4375V4.45825H12.4792V3.41659H13.1042C13.3914 3.41659 13.625 3.65025 13.625 3.93742V5.18742H2.37504V3.93742C2.37504 3.65025 2.6087 3.41659 2.89587 3.41659ZM13.1042 13.6249H2.89587C2.6087 13.6249 2.37504 13.3913 2.37504 13.1041V6.22909H13.625V13.1041C13.625 13.3913 13.3914 13.6249 13.1042 13.6249ZM9.56254 12.5312H12.6875V9.40617H9.56254V12.5312ZM10.6042 10.4478H11.6459V11.4895H10.6042V10.4478Z" />
</g>
<defs>
<clipPath id="clip0">
<rect width="13.3333" height="13.3333" transform="translate(1.33337 1.33325)"/>
</clipPath>
</defs>
</svg>
