<svg width="16" height="16" xmlns="http://www.w3.org/2000/svg"><g clip-path="url(#clip0)"><path d="M13.104 2.375h-.625V1.333h-1.041v1.042H4.563V1.333H3.52v1.042h-.625c-.862 0-1.563.7-1.563 1.562v9.167c0 .862.701 1.563 1.563 1.563h10.208c.862 0 1.563-.701 1.563-1.563V3.937c0-.861-.701-1.562-1.563-1.562zM2.896 3.417h.625v1.041h1.042V3.417h6.875v1.041h1.041V3.417h.625c.287 0 .521.233.521.52v1.25H2.375v-1.25c0-.287.234-.52.52-.52zm10.208 10.208H2.896a.521.521 0 0 1-.521-.52V6.228h11.25v6.875c0 .287-.234.52-.52.52zM9.563 12.53h3.124V9.406H9.563v3.125zm1.041-2.083h1.042v1.041h-1.042v-1.041z"/></g><defs><clipPath id="clip0"><path transform="translate(1.333 1.333)" d="M0 0h13.333v13.333H0z"/></clipPath></defs></svg>