<svg width="14" height="14" xmlns="http://www.w3.org/2000/svg"><path d="M13.4531 7.5469a.5468.5468 0 100-1.0938h-1.6042V5.3958h1.6042a.5468.5468 0 100-1.0938h-1.6042V2.698a.5468.5468 0 00-.5469-.547H9.698V.547a.5468.5468 0 10-1.0938 0V2.151H7.5469V.5469a.5468.5468 0 10-1.0938 0V2.151H5.3958V.5469a.5468.5468 0 10-1.0938 0V2.151H2.698a.5468.5468 0 00-.547.5469v1.6042H.547a.5468.5468 0 100 1.0937H2.151v1.0572H.5469a.5468.5468 0 100 1.0938H2.151v1.0573H.5469a.5468.5468 0 100 1.0938H2.151v1.6042c0 .3019.2448.5468.5469.5468h1.6042v1.6041a.5468.5468 0 101.0937 0v-1.6042h1.0572v1.6042a.5468.5468 0 101.0938 0v-1.6042h1.0573v1.6042a.5468.5468 0 101.0938 0v-1.6042h1.604a.5468.5468 0 00.5469-.5469V9.6979h1.6042a.5468.5468 0 100-1.0938h-1.6042V7.5469h1.6042zm-2.6979 3.2083H3.2448V3.2448h7.5105v7.5104h-.0001z"/></svg>