<svg width="16" height="16" viewBox="0 0 16 16" xmlns="http://www.w3.org/2000/svg">
<path d="M8 1C8.945 1 9.86136 1.18455 10.7236 1.54886C11.5573 1.90205 12.305 2.40636 12.9493 3.04909C13.592 3.69182 14.098 4.44114 14.4495 5.27477C14.8155 6.13864 15 7.055 15 8C15 8.945 14.8155 9.86136 14.4511 10.7236C14.098 11.5573 13.5936 12.305 12.9509 12.9493C12.3082 13.592 11.5589 14.098 10.7252 14.4495C9.86136 14.8155 8.945 15 8 15C7.055 15 6.13864 14.8155 5.27636 14.4511C4.44273 14.098 3.695 13.5936 3.05068 12.9509C2.40795 12.3082 1.90205 11.5589 1.55045 10.7252C1.18455 9.86136 1 8.945 1 8C1 7.055 1.18455 6.13864 1.54886 5.27636C1.90205 4.44273 2.40636 3.695 3.04909 3.05068C3.69182 2.40795 4.44114 1.90205 5.27477 1.55045C6.13864 1.18455 7.055 1 8 1Z"/>
<circle cx="8.02079" cy="11.9685" r="1.32987" fill="white"/>
<rect x="6.69092" y="2.66016" width="2.65974" height="6.64935" rx="1.32987" fill="white"/>
</svg>
