<svg width="100" height="80" fill="none" xmlns="http://www.w3.org/2000/svg"><path fill-rule="evenodd" clip-rule="evenodd" d="M58.382 24.166h.11c3.987 0 7.052 0 9.485.237 2.459.24 4.378.73 6.034 1.778a13 13 0 014.032 4.032c1.049 1.656 1.538 3.575 1.778 6.035.238 2.432.238 5.497.238 9.483v.684c0 3.986 0 7.051-.238 9.484-.24 2.46-.73 4.378-1.778 6.034a13 13 0 01-4.032 4.033c-1.656 1.048-3.575 1.538-6.034 1.778-2.433.237-5.498.237-9.484.237h-.111c-3.986 0-7.051 0-9.484-.237-2.46-.24-4.378-.73-6.034-1.778a13 13 0 01-4.033-4.033c-1.048-1.656-1.538-3.575-1.778-6.034-.237-2.433-.237-5.498-.237-9.484v-.684c0-3.986 0-7.05.237-9.483.24-2.46.73-4.379 1.778-6.035a13 13 0 014.033-4.032c1.656-1.049 3.575-1.538 6.034-1.778 2.432-.237 5.497-.237 9.484-.237zm-9.29 2.227c-2.309.226-3.876.666-5.159 1.478a11 11 0 00-3.412 3.412c-.812 1.283-1.252 2.85-1.477 5.159-.227 2.324-.228 5.292-.228 9.345v.573c0 4.053.001 7.02.228 9.345.225 2.309.665 3.876 1.477 5.159a10.998 10.998 0 003.412 3.412c1.283.812 2.85 1.252 5.16 1.477 2.323.227 5.291.228 9.344.228 4.053 0 7.021-.001 9.345-.228 2.31-.225 3.877-.665 5.16-1.477a11 11 0 003.411-3.412c.812-1.283 1.253-2.85 1.478-5.16.227-2.323.228-5.291.228-9.344v-.573c0-4.053-.001-7.021-.228-9.345-.225-2.309-.666-3.876-1.478-5.16a11 11 0 00-3.412-3.411c-1.282-.812-2.85-1.252-5.159-1.478-2.324-.226-5.292-.227-9.345-.227-4.053 0-7.02 0-9.345.227z" fill="#8E9199"/><g filter="url(#filter0_b)"><rect x="20.059" y="13.136" width="46.398" height="46.398" rx="12" fill="#e3e3e3"/></g><defs><filter id="filter0_b" x="-3.941" y="-10.864" width="94.398" height="94.398" filterUnits="userSpaceOnUse" color-interpolation-filters="sRGB"><feFlood flood-opacity="0" result="BackgroundImageFix"/><feGaussianBlur stdDeviation="12"/><feComposite in2="SourceAlpha" operator="in" result="effect1_backgroundBlur"/><feBlend in="SourceGraphic" in2="effect1_backgroundBlur" result="shape"/></filter></defs></svg>