<svg width="12" height="12" viewBox="0 0 48 48" xmlns="http://www.w3.org/2000/svg"><path d="M47.907 19.837l-.013-.05-7.19-18.064A2.471 2.471 0 0038.348 0H9.204C8.114 0 7.147.716 6.84 1.749L.118 19.629l-.02.044-.012.05c-.083.31-.109.628-.064.938a4.828 4.828 0 00-.013.304v23.183C.009 46.27 1.759 48 3.905 48h40.19c2.146 0 3.895-1.73 3.902-3.852V20.965c0-.082 0-.165-.007-.234.026-.31 0-.609-.083-.894zm-18.954-2.724l-.02.995c-.05 2.845-2.037 4.758-4.94 4.758-1.416 0-2.633-.45-3.511-1.305-.878-.856-1.359-2.047-1.384-3.453l-.02-.995H5.892l5.095-12.247h25.58L41.8 17.113H28.953zm-24.03 4.866h10.08c1.557 3.618 4.87 5.753 8.997 5.753 2.16 0 4.165-.596 5.786-1.724 1.422-.988 2.531-2.37 3.249-4.03h10.028v21.156H4.923V21.98z"/></svg>