<svg width="120" height="96" fill="none" xmlns="http://www.w3.org/2000/svg"><path fill-rule="evenodd" clip-rule="evenodd" d="M79.382 57.127l.28.162c.093.054.186.108.279.16 4.903 2.831 7.657 4.42 9.082 6.188 2.381 2.952 2.381 6.36 0 9.312-1.425 1.767-4.179 3.356-9.082 6.187l-.559.323c-4.903 2.83-7.657 4.42-10.717 5.243-5.114 1.374-11.017 1.374-16.13 0-3.061-.823-5.815-2.413-10.718-5.243l-.558-.323c-4.904-2.83-7.658-4.42-9.083-6.187-2.381-2.952-2.381-6.36 0-9.312 1.425-1.767 4.179-3.357 9.083-6.187l.279-.161.279-.162c4.903-2.83 7.657-4.42 10.718-5.243 5.113-1.375 11.017-1.375 16.13 0 3.06.823 5.814 2.413 10.717 5.243zm-1.8 1.361c-5.259-3.036-7.629-4.386-10.158-5.066-4.327-1.163-9.322-1.163-13.649 0-2.529.68-4.899 2.03-10.159 5.067-5.26 3.036-7.598 4.404-8.775 5.864-2.015 2.498-2.015 5.382 0 7.88 1.177 1.46 3.515 2.828 8.775 5.864 5.26 3.037 7.63 4.387 10.16 5.067 4.326 1.163 9.321 1.163 13.648 0 2.53-.68 4.899-2.03 10.159-5.067 5.26-3.036 7.598-4.404 8.776-5.864 2.014-2.498 2.014-5.382 0-7.88-1.178-1.46-3.516-2.828-8.776-5.864z" fill="#8E9199"/><g filter="url(#filter0_b)"><rect width="58.888" height="58.888" rx="12" transform="scale(1.22477 .70706) rotate(45 -9.64 73.966)" fill="#e3e3e3"/></g><path fill-rule="evenodd" clip-rule="evenodd" d="M82.427 17.268l.107.062c3.867 2.232 6.84 3.948 8.99 5.44 2.175 1.506 3.605 2.846 4.29 4.344.845 1.846.845 3.787 0 5.634-.685 1.497-2.115 2.837-4.29 4.344-2.15 1.491-5.123 3.207-8.99 5.44l-.107.062c-3.867 2.232-6.84 3.948-9.423 5.19-2.61 1.255-4.931 2.08-7.525 2.476-3.198.488-6.56.488-9.759 0-2.594-.396-4.915-1.221-7.525-2.476-2.583-1.242-5.556-2.958-9.422-5.19l-.108-.063c-3.867-2.232-6.84-3.948-8.99-5.439-2.174-1.507-3.604-2.847-4.29-4.344-.844-1.847-.844-3.788 0-5.634.686-1.498 2.116-2.838 4.29-4.345 2.15-1.49 5.123-3.207 8.99-5.44l.108-.061c3.866-2.232 6.839-3.949 9.422-5.19 2.61-1.255 4.931-2.08 7.525-2.476a32.73 32.73 0 019.759 0c2.594.395 4.915 1.22 7.525 2.476 2.583 1.241 5.556 2.958 9.423 5.19zm-11.303-3.886c-2.453-1.18-4.388-1.834-6.396-2.14a27.696 27.696 0 00-8.257 0c-2.007.306-3.943.96-6.395 2.14-2.468 1.186-5.348 2.847-9.279 5.117s-6.809 3.932-8.864 5.356c-2.042 1.416-3.175 2.533-3.706 3.692-.714 1.562-.714 3.205 0 4.767.53 1.16 1.664 2.277 3.706 3.692 2.055 1.425 4.933 3.087 8.864 5.357 3.931 2.27 6.811 3.93 9.279 5.117 2.452 1.179 4.388 1.833 6.395 2.14 2.706.412 5.551.412 8.257 0 2.008-.307 3.944-.961 6.396-2.14 2.467-1.187 5.347-2.848 9.278-5.117 3.931-2.27 6.809-3.932 8.864-5.357 2.042-1.415 3.176-2.533 3.706-3.692.715-1.562.715-3.205 0-4.767-.53-1.159-1.664-2.276-3.706-3.692-2.055-1.424-4.933-3.087-8.864-5.356-3.931-2.27-6.81-3.93-9.278-5.117z" fill="#8E9199"/><defs><filter id="filter0_b" x="-8.313" y="-.348" width="137.824" height="99.856" filterUnits="userSpaceOnUse" color-interpolation-filters="sRGB"><feFlood flood-opacity="0" result="BackgroundImageFix"/><feGaussianBlur stdDeviation="12"/><feComposite in2="SourceAlpha" operator="in" result="effect1_backgroundBlur"/><feBlend in="SourceGraphic" in2="effect1_backgroundBlur" result="shape"/></filter></defs></svg>
