<svg width="80" height="112" fill="none" xmlns="http://www.w3.org/2000/svg"><path fill-rule="evenodd" clip-rule="evenodd" d="M59.9352 61.2952l-6.661-6.661 3.0994-3.0994 9.7751 9.7751-3.0994 3.0994-.0147-.0147-6.6611 6.661-3.0994-3.0994 6.6611-6.661z" fill="#C4C4C4"/><path fill-rule="evenodd" clip-rule="evenodd" d="M59.9352 61.2952l-6.661-6.661 3.0994-3.0994 9.7751 9.7751-3.0994 3.0994-.0147-.0147-6.6611 6.661-3.0994-3.0994 6.6611-6.661z" fill="#C4C4C4"/><path fill-rule="evenodd" clip-rule="evenodd" d="M59.9352 61.2952l-6.661-6.661 3.0994-3.0994 9.7751 9.7751-3.0994 3.0994-.0147-.0147-6.6611 6.661-3.0994-3.0994 6.6611-6.661zM20.4462 61.2952l6.661-6.661-3.0994-3.0994-9.7751 9.7751 3.0994 3.0994.0147-.0147 6.661 6.661 3.0994-3.0994-6.661-6.661z" fill="#C4C4C4"/><path fill-rule="evenodd" clip-rule="evenodd" d="M20.4462 61.2952l6.661-6.661-3.0994-3.0994-9.7751 9.7751 3.0994 3.0994.0147-.0147 6.661 6.661 3.0994-3.0994-6.661-6.661z" fill="#C4C4C4"/><path fill-rule="evenodd" clip-rule="evenodd" d="M20.4462 61.2952l6.661-6.661-3.0994-3.0994-9.7751 9.7751 3.0994 3.0994.0147-.0147 6.661 6.661 3.0994-3.0994-6.661-6.661zM26.0165 78.047l22.066-38.2196 6.7533 3.899-22.066 38.2196-6.7533-3.899z" fill="#C4C4C4"/><path fill-rule="evenodd" clip-rule="evenodd" d="M26.0165 78.047l22.066-38.2196 6.7533 3.899-22.066 38.2196-6.7533-3.899z" fill="#C4C4C4"/><path fill-rule="evenodd" clip-rule="evenodd" d="M26.0165 78.047l22.066-38.2196 6.7533 3.899-22.066 38.2196-6.7533-3.899z" fill="#C4C4C4"/><path fill-rule="evenodd" clip-rule="evenodd" d="M0 5.36527C0 2.40211 2.42829 0 5.42373 0H56.9492L80 22.8024v83.8326c0 2.963-2.4283 5.365-5.4237 5.365H5.42373C2.42828 112 0 109.598 0 106.635V5.36527zm50.1695 5.36523V29.509h18.983v71.76h-58.305V10.7305h39.322z" fill="#C4C4C4"/></svg>