<svg width="80" height="80" fill="none" xmlns="http://www.w3.org/2000/svg"><path fill-rule="evenodd" clip-rule="evenodd" d="M40 80c22.0914 0 40-17.9086 40-40S62.0914 0 40 0 0 17.9086 0 40s17.9086 40 40 40zm0-10.8475c16.1005 0 29.1525-13.052 29.1525-29.1525S56.1005 10.8475 40 10.8475 10.8475 23.8995 10.8475 40 23.8995 69.1525 40 69.1525z" fill="#C4C4C4"/><path fill-rule="evenodd" clip-rule="evenodd" d="M52.4643 58.2169L21.783 27.5357l5.7528-5.7527L58.217 52.4642l-5.7527 5.7527z" fill="#C4C4C4"/><path fill-rule="evenodd" clip-rule="evenodd" d="M58.217 27.5357L27.5358 58.217l-5.7528-5.7528L52.4643 21.783l5.7527 5.7527z" fill="#C4C4C4"/></svg>