<svg width="24" height="24" viewBox="0 0 24 24" fill="none" xmlns="http://www.w3.org/2000/svg">
<path d="M0 11.4098C0 6.03119 0 3.34186 1.67093 1.67093C3.34186 0 6.03119 0 11.4098 0H12.5902C17.9688 0 20.6581 0 22.3291 1.67093C24 3.34186 24 6.03119 24 11.4098V12.5902C24 17.9688 24 20.6581 22.3291 22.3291C20.6581 24 17.9688 24 12.5902 24H11.4098C6.03119 24 3.34186 24 1.67093 22.3291C0 20.6581 0 17.9688 0 12.5902V11.4098Z" fill="#EFEFEF"/>
<path d="M9.14682 3.96338C10.5391 3.16113 11.2352 2.76001 11.9996 2.76001C12.764 2.76001 13.4601 3.16113 14.8524 3.96338L17.5468 5.51595C18.9391 6.31819 19.6352 6.71932 20.0174 7.38001C20.3996 8.0407 20.3996 8.84295 20.3996 10.4474V13.5526C20.3996 15.1571 20.3996 15.9593 20.0174 16.62C19.6352 17.2807 18.9391 17.6818 17.5468 18.4841L14.8524 20.0366C13.4601 20.8389 12.764 21.24 11.9996 21.24C11.2352 21.24 10.5391 20.8389 9.14682 20.0366L6.4524 18.4841C5.06014 17.6818 4.36401 17.2807 3.98181 16.62C3.59961 15.9593 3.59961 15.1571 3.59961 13.5526V10.4474C3.59961 8.84295 3.59961 8.0407 3.98181 7.38001C4.36401 6.71932 5.06014 6.31819 6.4524 5.51595L9.14682 3.96338Z" fill="#0077FF"/>
<path d="M8.52016 8.76001C8.32133 8.76001 8.16016 8.92119 8.16016 9.12001V10.3911C8.16016 10.5899 8.32133 10.7511 8.52016 10.7511H10.6446C10.8434 10.7511 11.0046 10.9123 11.0046 11.1111L11.0046 16.08C11.0046 16.2788 11.1658 16.44 11.3646 16.44H12.6357C12.8345 16.44 12.9957 16.2788 12.9957 16.08L12.9957 11.1111C12.9957 10.9123 13.1569 10.7511 13.3557 10.7511H15.4802C15.679 10.7511 15.8402 10.5899 15.8402 10.3911V9.12001C15.8402 8.92119 15.679 8.76001 15.4802 8.76001H8.52016Z" fill="white"/>
</svg>
