<svg width="36" height="35" viewBox="0 0 36 35" fill="none" xmlns="http://www.w3.org/2000/svg">
<path d="M35.2 16.3V17.9857C35.2 19.9143 35.2 21.6071 35.2 23.0929C35.1073 22.4529 34.8935 21.8353 34.5693 21.2714C33.836 20.0571 32.604 19.2714 30.25 17.9429V19.1071C30.25 20.0071 30.25 20.8214 30.184 21.5071C30.14 22.3038 29.904 23.0791 29.495 23.7704C29.086 24.4616 28.5156 25.0493 27.83 25.4857C27.2507 25.8857 26.5247 26.2929 25.7253 26.7429L22.2273 28.7143C21.5143 29.1312 20.78 29.5126 20.0273 29.8571C19.2962 30.2063 18.4949 30.3941 17.6807 30.4071C16.8641 30.3942 16.0604 30.2065 15.3267 29.8571C14.574 29.5126 13.8397 29.1312 13.1267 28.7143L9.62867 26.7429C8.82933 26.2929 8.10333 25.8857 7.524 25.4857C6.85098 25.0375 6.28558 24.4527 5.86667 23.7714C5.47234 23.0738 5.23721 22.3014 5.17733 21.5071C5.13333 20.8214 5.13333 20.0071 5.13333 19.1071V17.9429C2.77933 19.2714 1.53267 20.0857 0.814 21.2714C0.351507 22.1271 0.100403 23.0761 0.0806667 24.0429V24.1357C0 22.4071 0 20.4 0 17.9857V16.3C0 8.61429 0 4.77143 2.44933 2.38571C4.89867 0 8.844 0 16.7347 0H18.4653C26.356 0 30.3013 0 32.7507 2.38571C35.2 4.77143 35.2 8.61429 35.2 16.3Z" fill="white"/>
<path d="M35.1999 23.0929C35.1072 22.4529 34.8934 21.8353 34.5692 21.2714C33.8359 20.0572 32.6039 19.2714 30.2499 17.9429V19.1072C30.2499 20.0072 30.2499 20.8214 30.1839 21.5072C30.1399 22.3038 29.9039 23.0792 29.4949 23.7704C29.0859 24.4616 28.5155 25.0493 27.8299 25.4857C27.2506 25.8857 26.5246 26.2929 25.7252 26.7429L22.2272 28.7143C21.5142 29.1312 20.7799 29.5126 20.0272 29.8572C19.2961 30.2064 18.4948 30.3941 17.6806 30.4072C16.864 30.3943 16.0603 30.2065 15.3266 29.8572C14.5739 29.5126 13.8396 29.1312 13.1266 28.7143L9.62857 26.7429C8.82923 26.2929 8.10323 25.8857 7.5239 25.4857C6.85088 25.0375 6.28548 24.4527 5.86657 23.7714C5.47224 23.0738 5.23711 22.3014 5.17723 21.5072C5.13323 20.8214 5.13323 20.0072 5.13323 19.1072V17.9429C2.77923 19.2714 1.53257 20.0857 0.8139 21.2714C0.351406 22.1271 0.100303 23.0761 0.0805664 24.0429V24.1357C0.0805664 24.2143 0.0805664 24.2929 0.0805664 24.3643C0.0805664 24.9643 0.146566 25.5286 0.1979 26.0572C0.1979 26.35 0.2639 26.6357 0.300566 26.9072C0.300566 27.0429 0.300566 27.1857 0.359233 27.3143C0.508307 29.0462 1.24639 30.6801 2.45657 31.9572C4.91323 34.3572 8.87323 34.3572 16.7932 34.3572H18.5312C26.4512 34.3572 30.4112 34.3572 32.8752 31.9572C34.5839 30.2857 35.0752 27.9143 35.2659 24.0286C35.2439 23.7 35.1999 23.3857 35.1999 23.0929Z" fill="#3A3A3A"/>
<path d="M14.0725 7.45006C15.7958 6.47863 16.6538 6.02148 17.5998 6.02148C18.5458 6.02148 19.4038 6.50006 21.1272 7.45006L24.4565 9.32148C26.1798 10.2858 27.0378 10.7501 27.5145 11.5715C27.9912 12.3929 27.9838 13.3358 27.9838 15.2715V19.0143C27.9838 20.9501 27.9838 21.9143 27.5145 22.7143C27.0452 23.5143 26.1798 23.9715 24.4565 24.9572L21.1272 26.8286C19.4038 27.7929 18.5458 28.2572 17.5998 28.2572C16.6538 28.2572 15.7958 27.7715 14.0725 26.8286L10.7432 24.9501C9.01983 23.9858 8.16183 23.5215 7.68516 22.7072C7.20849 21.8929 7.21583 20.9429 7.21583 19.0072V15.2715C7.21583 13.3358 7.21583 12.3643 7.68516 11.5715C8.15449 10.7786 9.01983 10.2858 10.7432 9.32148L14.0725 7.45006Z" fill="#0077FF"/>
<path d="M12.8481 13.3715V15.7715H16.3681V22.6286H18.8321V15.7715H22.3521V13.3715H12.8481Z" fill="white"/>
</svg>
