<svg width="39" height="28" fill="none" xmlns="http://www.w3.org/2000/svg"><path fill-rule="evenodd" clip-rule="evenodd" d="M18.49 1.37c.927.606 2.564 2.025 4.321 3.784 1.723 1.726 3.12 3.336 3.743 4.273a8.124 8.124 0 01.04 9.081c-.602.927-2.021 2.57-3.783 4.334-1.761 1.764-3.402 3.186-4.328 3.79a8.095 8.095 0 01-9.075-.046c-.936-.626-2.541-2.022-4.26-3.744-1.754-1.756-3.169-3.392-3.776-4.321a8.126 8.126 0 01-.12-8.852c.52-.883 2.013-2.63 3.895-4.514 1.883-1.885 3.627-3.38 4.51-3.902a8.096 8.096 0 018.833.118z" fill="url(#paint0_radial)"/><path fill-rule="evenodd" clip-rule="evenodd" d="M30.473 3.896c.742.485 2.052 1.62 3.457 3.027 1.379 1.38 2.495 2.669 2.994 3.418a6.499 6.499 0 01.033 7.265c-.482.742-1.618 2.056-3.027 3.468-1.409 1.41-2.722 2.548-3.462 3.03a6.476 6.476 0 01-7.26-.035c-.75-.502-2.033-1.618-3.409-2.995-1.403-1.405-2.534-2.714-3.02-3.458a6.5 6.5 0 01-.097-7.08c.418-.707 1.611-2.105 3.117-3.613s2.902-2.703 3.607-3.121a6.477 6.477 0 017.067.094z" fill="url(#paint1_radial)"/><path fill-rule="evenodd" clip-rule="evenodd" d="M22.283 4.632c.175.17.35.345.528.522 1.723 1.726 3.12 3.336 3.743 4.273a8.124 8.124 0 01.04 9.081c-.602.927-2.021 2.57-3.783 4.334-.177.178-.353.352-.528.522a36.963 36.963 0 01-2.484-2.29c-1.403-1.405-2.534-2.714-3.02-3.458a6.5 6.5 0 01-.097-7.08c.418-.707 1.611-2.105 3.117-3.613a36.989 36.989 0 012.484-2.29z" fill="#FF0D2A"/><defs><radialGradient id="paint0_radial" cx="0" cy="0" r="1" gradientUnits="userSpaceOnUse" gradientTransform="matrix(-28.3546 0 0 -28.3933 28.172 14.677)"><stop offset=".373" stop-color="#FF0D0D" stop-opacity=".51"/><stop offset="1" stop-color="#FF0D2A"/></radialGradient><radialGradient id="paint1_radial" cx="0" cy="0" r="1" gradientUnits="userSpaceOnUse" gradientTransform="matrix(20.778 0 0 20.8063 17.208 13.944)"><stop offset=".33" stop-color="red" stop-opacity=".38"/><stop offset="1" stop-color="#FF001F" stop-opacity=".88"/></radialGradient></defs></svg>