<svg width="36" height="35" viewBox="0 0 36 35" fill="none" xmlns="http://www.w3.org/2000/svg">
<path fill-rule="evenodd" clip-rule="evenodd" d="M13.4742 5.77991C15.5251 4.60997 16.5505 4.025 17.6765 4.025C18.8025 4.025 19.8279 4.60997 21.8788 5.77991L25.8478 8.04408C27.8986 9.21402 28.924 9.79899 29.487 10.7625C30.05 11.726 30.05 12.896 30.05 15.2358V19.7642C30.05 22.104 30.05 23.274 29.487 24.2375C28.924 25.201 27.8986 25.786 25.8478 26.9559L21.8787 29.2201C19.8279 30.39 18.8025 30.975 17.6765 30.975C16.5505 30.975 15.525 30.39 13.4742 29.2201L9.50522 26.9559C7.45437 25.786 6.42894 25.201 5.86595 24.2375C5.30295 23.274 5.30295 22.104 5.30295 19.7642V15.2358C5.30295 12.896 5.30295 11.726 5.86595 10.7625C6.42894 9.79899 7.45437 9.21402 9.50522 8.04408L13.4742 5.77991ZM12.5503 12.775C12.2574 12.775 12.02 13.01 12.02 13.3V15.1537C12.02 15.4437 12.2574 15.6787 12.5503 15.6787H15.6797C15.9726 15.6787 16.21 15.9138 16.21 16.2037V23.45C16.21 23.74 16.4474 23.975 16.7403 23.975H18.6127C18.9056 23.975 19.143 23.74 19.143 23.45V16.2037C19.143 15.9138 19.3804 15.6787 19.6733 15.6787H22.8027C23.0955 15.6787 23.333 15.4437 23.333 15.1537V13.3C23.333 13.0101 23.0955 12.775 22.8027 12.775H12.5503Z" fill="white"/>
<path fill-rule="evenodd" clip-rule="evenodd" d="M0 16.6393C0 8.79548 0 4.87355 2.46135 2.43678C4.9227 0 8.88419 0 16.8072 0H18.5458C26.4688 0 30.4303 0 32.8916 2.43678C35.353 4.87355 35.353 8.79548 35.353 16.6393V18.3607C35.353 26.2045 35.353 30.1264 32.8916 32.5632C30.4303 35 26.4688 35 18.5458 35H16.8072C8.88419 35 4.9227 35 2.46135 32.5632C0 30.1264 0 26.2045 0 18.3607V16.6393ZM16.8072 1.05H18.5458C22.5373 1.05 25.4242 1.05223 27.6255 1.34523C29.7963 1.63418 31.1409 2.18846 32.1417 3.17924C33.1425 4.17002 33.7023 5.50118 33.9942 7.65031C34.2901 9.82965 34.2924 12.6877 34.2924 16.6393V18.3607C34.2924 22.3123 34.2901 25.1704 33.9942 27.3497C33.7023 29.4988 33.1425 30.83 32.1417 31.8208C31.1409 32.8115 29.7963 33.3658 27.6255 33.6548C25.4242 33.9478 22.5373 33.95 18.5458 33.95H16.8072C12.8157 33.95 9.92878 33.9478 7.72747 33.6548C5.55666 33.3658 4.21207 32.8115 3.2113 31.8208C2.21053 30.83 1.65066 29.4988 1.3588 27.3497C1.06284 25.1704 1.06059 22.3123 1.06059 18.3607V16.6393C1.06059 12.6877 1.06284 9.82965 1.3588 7.65031C1.65066 5.50118 2.21053 4.17002 3.2113 3.17924C4.21207 2.18846 5.55666 1.63418 7.72747 1.34523C9.92878 1.05223 12.8157 1.05 16.8072 1.05Z" fill="white"/>
</svg>
