<svg width="154" height="35" viewBox="0 0 154 35" fill="none" xmlns="http://www.w3.org/2000/svg">
<path fill-rule="evenodd" clip-rule="evenodd" d="M13.4742 5.77991C15.5251 4.60997 16.5505 4.025 17.6765 4.025C18.8025 4.025 19.8279 4.60997 21.8788 5.77991L25.8478 8.04408C27.8986 9.21402 28.924 9.79899 29.487 10.7625C30.05 11.726 30.05 12.896 30.05 15.2358V19.7642C30.05 22.104 30.05 23.274 29.487 24.2375C28.924 25.201 27.8986 25.786 25.8478 26.9559L21.8787 29.2201C19.8279 30.39 18.8025 30.975 17.6765 30.975C16.5505 30.975 15.525 30.39 13.4742 29.2201L9.50522 26.9559C7.45437 25.786 6.42894 25.201 5.86595 24.2375C5.30295 23.274 5.30295 22.104 5.30295 19.7642V15.2358C5.30295 12.896 5.30295 11.726 5.86595 10.7625C6.42894 9.79899 7.45437 9.21402 9.50522 8.04408L13.4742 5.77991ZM12.5503 12.775C12.2574 12.775 12.02 13.01 12.02 13.3V15.1537C12.02 15.4437 12.2574 15.6787 12.5503 15.6787H15.6797C15.9726 15.6787 16.21 15.9138 16.21 16.2037V23.45C16.21 23.74 16.4474 23.975 16.7403 23.975H18.6127C18.9056 23.975 19.143 23.74 19.143 23.45V16.2037C19.143 15.9138 19.3804 15.6787 19.6733 15.6787H22.8027C23.0955 15.6787 23.333 15.4437 23.333 15.1537V13.3C23.333 13.0101 23.0955 12.775 22.8027 12.775H12.5503Z" fill="white"/>
<path fill-rule="evenodd" clip-rule="evenodd" d="M0 16.6393C0 8.79548 0 4.87355 2.46135 2.43678C4.9227 0 8.88419 0 16.8072 0H18.5458C26.4688 0 30.4303 0 32.8916 2.43678C35.353 4.87355 35.353 8.79548 35.353 16.6393V18.3607C35.353 26.2045 35.353 30.1264 32.8916 32.5632C30.4303 35 26.4688 35 18.5458 35H16.8072C8.88419 35 4.9227 35 2.46135 32.5632C0 30.1264 0 26.2045 0 18.3607V16.6393ZM16.8072 1.05H18.5458C22.5373 1.05 25.4242 1.05223 27.6255 1.34523C29.7963 1.63418 31.1409 2.18846 32.1417 3.17924C33.1425 4.17002 33.7023 5.50118 33.9942 7.65031C34.2901 9.82965 34.2924 12.6877 34.2924 16.6393V18.3607C34.2924 22.3123 34.2901 25.1704 33.9942 27.3497C33.7023 29.4988 33.1425 30.83 32.1417 31.8208C31.1409 32.8115 29.7963 33.3658 27.6255 33.6548C25.4242 33.9478 22.5373 33.95 18.5458 33.95H16.8072C12.8157 33.95 9.92878 33.9478 7.72747 33.6548C5.55666 33.3658 4.21207 32.8115 3.2113 31.8208C2.21053 30.83 1.65066 29.4988 1.3588 27.3497C1.06284 25.1704 1.06059 22.3123 1.06059 18.3607V16.6393C1.06059 12.6877 1.06284 9.82965 1.3588 7.65031C1.65066 5.50118 2.21053 4.17002 3.2113 3.17924C4.21207 2.18846 5.55666 1.63418 7.72747 1.34523C9.92878 1.05223 12.8157 1.05 16.8072 1.05Z" fill="white"/>
<path d="M56.2221 26.4252H53.2949V12.0559H47.4404V9.39941H62.0766V12.0559H56.2221V26.4252Z" fill="white"/>
<path d="M66.6505 13.6257C68.2768 13.6257 69.5534 14.1328 70.4803 15.1471C71.4236 16.1453 71.8952 17.5541 71.8952 19.3734V26.4252H69.8217L69.2363 24.4449C68.8785 25.0406 68.35 25.5638 67.6507 26.0146C66.9514 26.4493 66.122 26.6667 65.1625 26.6667C64.3169 26.6667 63.5526 26.4976 62.8695 26.1595C62.2028 25.8214 61.6824 25.3465 61.3084 24.7347C60.9343 24.1229 60.7473 23.4306 60.7473 22.6578C60.7473 21.4664 61.2189 20.5165 62.1621 19.8081C63.1216 19.0836 64.512 18.7213 66.3334 18.7213H69.0655C69.0005 17.8841 68.7403 17.224 68.2849 16.741C67.8458 16.2419 67.2523 15.9924 66.5042 15.9924C65.9025 15.9924 65.3821 16.1373 64.943 16.4271C64.5039 16.7169 64.1787 17.0711 63.9673 17.4897L61.3815 17.055C61.6905 15.9924 62.3248 15.1552 63.2842 14.5434C64.26 13.9316 65.3821 13.6257 66.6505 13.6257ZM65.8212 24.3241C66.7969 24.3241 67.5856 24.0102 68.1873 23.3823C68.789 22.7544 69.0899 21.9252 69.0899 20.8948H66.431C64.5283 20.8948 63.577 21.4422 63.577 22.537C63.577 23.0844 63.7802 23.5191 64.1868 23.8411C64.5934 24.1631 65.1381 24.3241 65.8212 24.3241Z" fill="white"/>
<path d="M74.9384 26.4252V13.8672H77.0363L77.573 15.6784C77.9795 15.0183 78.4593 14.5514 79.0122 14.2777C79.5814 14.004 80.2644 13.8672 81.0612 13.8672H81.5979L81.8418 16.5237H80.2318C78.5731 16.5237 77.7437 17.3528 77.7437 19.0111V26.4252H74.9384Z" fill="white"/>
<path d="M88.3761 13.6257C90.0023 13.6257 91.2789 14.1328 92.2058 15.1471C93.1491 16.1453 93.6207 17.5541 93.6207 19.3734V26.4252H91.5472L90.9618 24.4449C90.604 25.0406 90.0755 25.5638 89.3762 26.0146C88.6769 26.4493 87.8475 26.6667 86.8881 26.6667C86.0424 26.6667 85.2781 26.4976 84.5951 26.1595C83.9283 25.8214 83.4079 25.3465 83.0339 24.7347C82.6598 24.1229 82.4728 23.4306 82.4728 22.6578C82.4728 21.4664 82.9444 20.5165 83.8876 19.8081C84.8471 19.0836 86.2376 18.7213 88.0589 18.7213H90.791C90.726 17.8841 90.4658 17.224 90.0104 16.741C89.5713 16.2419 88.9778 15.9924 88.2297 15.9924C87.628 15.9924 87.1076 16.1373 86.6685 16.4271C86.2294 16.7169 85.9042 17.0711 85.6928 17.4897L83.107 17.055C83.416 15.9924 84.0503 15.1552 85.0097 14.5434C85.9855 13.9316 87.1076 13.6257 88.3761 13.6257ZM87.5467 24.3241C88.5224 24.3241 89.3111 24.0102 89.9128 23.3823C90.5146 22.7544 90.8154 21.9252 90.8154 20.8948H88.1565C86.2538 20.8948 85.3025 21.4422 85.3025 22.537C85.3025 23.0844 85.5057 23.5191 85.9123 23.8411C86.3189 24.1631 86.8637 24.3241 87.5467 24.3241Z" fill="white"/>
<path d="M96.664 26.4252V13.8672H98.7618L99.3229 15.7509C99.7294 15.0908 100.266 14.5756 100.933 14.2053C101.616 13.8189 102.348 13.6257 103.128 13.6257C104.039 13.6257 104.86 13.8511 105.592 14.3019C106.324 14.7527 106.901 15.3725 107.324 16.1614C107.747 16.9503 107.958 17.8439 107.958 18.8421V26.4252H105.153V19.156C105.153 18.2544 104.893 17.5219 104.372 16.9584C103.852 16.3949 103.185 16.1131 102.372 16.1131C101.526 16.1131 100.827 16.4029 100.274 16.9825C99.7375 17.546 99.4692 18.2705 99.4692 19.156V26.4252H96.664Z" fill="white"/>
<path d="M118.567 24.0102L118.323 26.4252H115.957C114.574 26.4252 113.525 26.1032 112.81 25.4592C112.094 24.7991 111.737 23.8492 111.737 22.6095V16.2822H109.663V13.8672H111.737L112.444 10.2447H114.542V13.8672H118.323V16.2822H114.542V22.6095C114.542 23.5433 115.013 24.0102 115.957 24.0102H118.567Z" fill="white"/>
<path d="M126.583 26.6667C125.282 26.6667 124.111 26.393 123.07 25.8456C122.046 25.2821 121.241 24.5093 120.655 23.5272C120.086 22.529 119.802 21.402 119.802 20.1462C119.802 18.8904 120.086 17.7714 120.655 16.7893C121.241 15.7911 122.046 15.0183 123.07 14.4709C124.111 13.9074 125.282 13.6257 126.583 13.6257C127.884 13.6257 129.047 13.9074 130.071 14.4709C131.112 15.0183 131.917 15.7911 132.486 16.7893C133.072 17.7714 133.364 18.8904 133.364 20.1462C133.364 21.402 133.072 22.529 132.486 23.5272C131.917 24.5093 131.112 25.2821 130.071 25.8456C129.047 26.393 127.884 26.6667 126.583 26.6667ZM126.583 24.1309C127.721 24.1309 128.648 23.7687 129.364 23.0442C130.079 22.3036 130.437 21.3376 130.437 20.1462C130.437 18.9548 130.079 17.9968 129.364 17.2723C128.648 16.5317 127.721 16.1614 126.583 16.1614C125.445 16.1614 124.518 16.5317 123.802 17.2723C123.087 17.9968 122.729 18.9548 122.729 20.1462C122.729 21.3376 123.087 22.3036 123.802 23.0442C124.518 23.7687 125.445 24.1309 126.583 24.1309Z" fill="white"/>
<path d="M141.853 26.6667C140.552 26.6667 139.381 26.393 138.34 25.8456C137.316 25.2821 136.511 24.5093 135.925 23.5272C135.356 22.529 135.071 21.402 135.071 20.1462C135.071 18.8904 135.356 17.7714 135.925 16.7893C136.511 15.7911 137.316 15.0183 138.34 14.4709C139.381 13.9074 140.552 13.6257 141.853 13.6257C143.154 13.6257 144.317 13.9074 145.341 14.4709C146.382 15.0183 147.187 15.7911 147.756 16.7893C148.342 17.7714 148.634 18.8904 148.634 20.1462C148.634 21.402 148.342 22.529 147.756 23.5272C147.187 24.5093 146.382 25.2821 145.341 25.8456C144.317 26.393 143.154 26.6667 141.853 26.6667ZM141.853 24.1309C142.991 24.1309 143.918 23.7687 144.634 23.0442C145.349 22.3036 145.707 21.3376 145.707 20.1462C145.707 18.9548 145.349 17.9968 144.634 17.2723C143.918 16.5317 142.991 16.1614 141.853 16.1614C140.714 16.1614 139.788 16.5317 139.072 17.2723C138.356 17.9968 137.999 18.9548 137.999 20.1462C137.999 21.3376 138.356 22.3036 139.072 23.0442C139.788 23.7687 140.714 24.1309 141.853 24.1309Z" fill="white"/>
<path d="M154 26.4252H151.195V9.39941H154V26.4252Z" fill="white"/>
</svg>
