<svg width="120" height="96" fill="none" xmlns="http://www.w3.org/2000/svg"><path fill-rule="evenodd" clip-rule="evenodd" d="M59.937 10.8h.125c6.677 0 11.768 0 15.813.367 4.075.369 7.206 1.118 9.925 2.688a22.8 22.8 0 018.345 8.345c1.57 2.72 2.319 5.85 2.688 9.924.367 4.046.367 9.137.367 15.814v.124c0 6.677 0 11.768-.367 15.814-.37 4.074-1.118 7.205-2.688 9.924a22.8 22.8 0 01-8.345 8.345c-2.72 1.57-5.85 2.32-9.925 2.688-4.045.367-9.136.367-15.813.367h-.125c-6.676 0-11.767 0-15.813-.367-4.074-.369-7.205-1.118-9.924-2.688a22.8 22.8 0 01-8.346-8.345c-1.57-2.72-2.318-5.85-2.688-9.924-.366-4.046-.366-9.137-.366-15.813v-.126c0-6.676 0-11.767.366-15.813.37-4.074 1.119-7.205 2.688-9.924a22.8 22.8 0 018.346-8.345c2.719-1.57 5.85-2.319 9.924-2.688 4.045-.367 9.137-.367 15.813-.367zm-15.596 2.757c-3.908.354-6.648 1.052-8.941 2.376a20.4 20.4 0 00-7.467 7.467c-1.324 2.293-2.022 5.033-2.376 8.941C25.2 36.266 25.2 41.249 25.2 48c0 6.751.001 11.735.357 15.659.354 3.908 1.052 6.648 2.376 8.941a20.4 20.4 0 007.467 7.467c2.293 1.324 5.033 2.022 8.94 2.376 3.925.356 8.908.357 15.66.357 6.751 0 11.734-.001 15.659-.357 3.908-.354 6.648-1.052 8.94-2.376a20.4 20.4 0 007.468-7.467c1.324-2.293 2.022-5.033 2.376-8.941.356-3.924.357-8.908.357-15.659 0-6.751-.001-11.734-.357-15.659-.354-3.908-1.052-6.648-2.376-8.941a20.4 20.4 0 00-7.467-7.467c-2.293-1.324-5.033-2.022-8.941-2.376-3.925-.356-8.908-.357-15.66-.357-6.75 0-11.734.001-15.658.357z" fill="#FF272C"/><g filter="url(#filter0_b)"><path d="M32.4 63c0 4.292 0 6.438.802 8.091a8 8 0 003.707 3.707c1.653.802 3.8.802 8.09.802 4.293 0 6.439 0 8.092-.802a8 8 0 003.707-3.707c.802-1.653.802-3.8.802-8.09 0-4.293 0-6.439-.802-8.092a8 8 0 00-3.707-3.707c-1.653-.802-3.8-.802-8.091-.802-4.292 0-6.438 0-8.091.802a8 8 0 00-3.707 3.707c-.802 1.653-.802 3.8-.802 8.091z" fill="#040B1D" fill-opacity=".1"/></g><g filter="url(#filter1_b)"><path d="M62.4 63c0 4.292 0 6.438.802 8.091a8 8 0 003.707 3.707c1.653.802 3.8.802 8.09.802 4.293 0 6.439 0 8.092-.802a8 8 0 003.707-3.707c.802-1.653.802-3.8.802-8.09 0-4.293 0-6.439-.802-8.092a8 8 0 00-3.707-3.707c-1.653-.802-3.8-.802-8.091-.802-4.292 0-6.438 0-8.091.802a8 8 0 00-3.707 3.707c-.802 1.653-.802 3.8-.802 8.091z" fill="#040B1D" fill-opacity=".1"/></g><g filter="url(#filter2_b)"><path d="M32.4 33c0 4.292 0 6.438.802 8.091a8 8 0 003.707 3.707c1.653.802 3.8.802 8.09.802 4.293 0 6.439 0 8.092-.802a8 8 0 003.707-3.707c.802-1.653.802-3.8.802-8.09 0-4.293 0-6.439-.802-8.092a8 8 0 00-3.707-3.707c-1.653-.802-3.8-.802-8.091-.802-4.292 0-6.438 0-8.091.802a8 8 0 00-3.707 3.707c-.802 1.653-.802 3.8-.802 8.091z" fill="#040B1D" fill-opacity=".1"/></g><g filter="url(#filter3_b)"><path d="M62.4 33c0 4.292 0 6.438.802 8.091a8 8 0 003.707 3.707c1.653.802 3.8.802 8.09.802 4.293 0 6.439 0 8.092-.802a8 8 0 003.707-3.707c.802-1.653.802-3.8.802-8.09 0-4.293 0-6.439-.802-8.092a8 8 0 00-3.707-3.707c-1.653-.802-3.8-.802-8.091-.802-4.292 0-6.438 0-8.091.802a8 8 0 00-3.707 3.707c-.802 1.653-.802 3.8-.802 8.091z" fill="#040B1D" fill-opacity=".1"/></g><defs><filter id="filter0_b" x="8.4" y="26.4" width="73.2" height="73.2" filterUnits="userSpaceOnUse" color-interpolation-filters="sRGB"><feFlood flood-opacity="0" result="BackgroundImageFix"/><feGaussianBlur stdDeviation="12"/><feComposite in2="SourceAlpha" operator="in" result="effect1_backgroundBlur"/><feBlend in="SourceGraphic" in2="effect1_backgroundBlur" result="shape"/></filter><filter id="filter1_b" x="38.4" y="26.4" width="73.2" height="73.2" filterUnits="userSpaceOnUse" color-interpolation-filters="sRGB"><feFlood flood-opacity="0" result="BackgroundImageFix"/><feGaussianBlur stdDeviation="12"/><feComposite in2="SourceAlpha" operator="in" result="effect1_backgroundBlur"/><feBlend in="SourceGraphic" in2="effect1_backgroundBlur" result="shape"/></filter><filter id="filter2_b" x="8.4" y="-3.6" width="73.2" height="73.2" filterUnits="userSpaceOnUse" color-interpolation-filters="sRGB"><feFlood flood-opacity="0" result="BackgroundImageFix"/><feGaussianBlur stdDeviation="12"/><feComposite in2="SourceAlpha" operator="in" result="effect1_backgroundBlur"/><feBlend in="SourceGraphic" in2="effect1_backgroundBlur" result="shape"/></filter><filter id="filter3_b" x="38.4" y="-3.6" width="73.2" height="73.2" filterUnits="userSpaceOnUse" color-interpolation-filters="sRGB"><feFlood flood-opacity="0" result="BackgroundImageFix"/><feGaussianBlur stdDeviation="12"/><feComposite in2="SourceAlpha" operator="in" result="effect1_backgroundBlur"/><feBlend in="SourceGraphic" in2="effect1_backgroundBlur" result="shape"/></filter></defs></svg>
