<svg width="200" height="182" fill="none" xmlns="http://www.w3.org/2000/svg"><path fill-rule="evenodd" clip-rule="evenodd" d="M55.6474 27.3276H181.267v-9.0181H55.6474v9.0181zM18.4573 163.966H181.267V45.6372H18.4573V163.966zm4.5358-145.871c2.5201 0 4.5631 2.0266 4.5631 4.5265 0 2.5-2.043 4.5266-4.5631 4.5266-2.5201 0-4.5631-2.0266-4.5631-4.5266 0-2.4999 2.043-4.5265 4.5631-4.5265zm18.7328 0c2.5201 0 4.563 2.0266 4.563 4.5265 0 2.5-2.0429 4.5266-4.563 4.5266s-4.5631-2.0266-4.5631-4.5266c0-2.4999 2.043-4.5265 4.5631-4.5265zM9.30083 0C4.19477 0 0 3.96389 0 9.02305V172.928C0 177.985 4.19477 182 9.30083 182H190.639c5.109 0 9.361-4.015 9.361-9.072V9.02305C200 3.96389 195.748 0 190.639 0H9.30083z" fill="#C4C4C4"/><circle cx="99.5366" cy="134.791" r="9.63877" fill="#F5222D"/><path fill-rule="evenodd" clip-rule="evenodd" d="M147.73 63.6119L71.3617 142.946l-6.41-6.17L141.32 57.4415l6.41 6.1704z" fill="#F5222D"/><path fill-rule="evenodd" clip-rule="evenodd" d="M133.31 76.3677c-9.932-5.7545-21.468-9.0486-33.7734-9.0486-18.6783 0-35.584 7.5899-47.8011 19.8538l6.2913 6.2914c10.607-10.6538 25.2884-17.2478 41.5098-17.2478 9.8944 0 19.2154 2.4531 27.3884 6.7844l6.385-6.6332zm7.497 5.0415l-6.212 6.4533c2.35 1.758 4.563 3.6884 6.62 5.7723l6.292-6.2915c-2.099-2.1215-4.337-4.1045-6.7-5.9341zm-21.44 9.4433c-6.048-2.7339-12.762-4.2558-19.8304-4.2558-13.355 0-25.4413 5.4322-34.1698 14.2073l6.2914 6.292c7.1184-7.1657 16.9803-11.602 27.8784-11.602 4.6244 0 9.0614.7986 13.1814 2.2654l6.649-6.9069zm1.702 11.0605l6.259-6.5011c2.346 1.6586 4.537 3.5216 6.547 5.5631l-6.291 6.291c-1.97-2.007-4.154-3.803-6.515-5.353zm-15.953 3.744c-1.807-.344-3.672-.524-5.5794-.524-8.2365 0-15.6887 3.357-21.0628 8.778l6.2915 6.292c3.1813-3.221 7.4084-5.407 12.1305-6.007l8.2202-8.539zm2.656 10.071l6.455-6.707c2.413 1.379 4.614 3.086 6.541 5.062l-6.292 6.292c-1.893-1.961-4.167-3.55-6.704-4.647z" fill="#F5222D"/></svg>