<svg width="200" height="182" fill="none" xmlns="http://www.w3.org/2000/svg"><path fill-rule="evenodd" clip-rule="evenodd" d="M121.561 139.722c1.066-1.263 1.6-3.034 1.6-5.31v-8.992h-14.173v8.992c0 2.276.577 4.047 1.731 5.31 1.154 1.264 2.982 1.895 5.486 1.895 2.504 0 4.289-.631 5.356-1.895zm-18.277 7.615c-2.352-2.796-3.5271-6.787-3.5271-11.975v-9.942H49.9491v-9.913h82.5079v20.503c0 4.726-1.241 8.495-3.723 11.304-2.482 2.811-6.948 4.216-12.152 4.216-5.682 0-10.947-1.398-13.298-4.193z" fill="#F5222D"/><path fill-rule="evenodd" clip-rule="evenodd" d="M55.6474 27.3276H181.267v-9.0181H55.6474v9.0181zM18.4573 163.966H181.267V45.6371H18.4573V163.966zm4.5358-145.871c2.5201 0 4.5631 2.0266 4.5631 4.5265 0 2.5-2.043 4.5266-4.5631 4.5266-2.5201 0-4.5631-2.0266-4.5631-4.5266 0-2.4999 2.043-4.5265 4.5631-4.5265zm18.7328 0c2.5201 0 4.563 2.0266 4.563 4.5265 0 2.5-2.0429 4.5266-4.563 4.5266s-4.5631-2.0266-4.5631-4.5266c0-2.4999 2.043-4.5265 4.5631-4.5265zM9.30083 0C4.19477 0 0 3.96389 0 9.02305V172.928C0 177.985 4.19477 182 9.30083 182H190.639c5.109 0 9.361-4.015 9.361-9.072V9.02305C200 3.96389 195.748 0 190.639 0H9.30083z" fill="#C4C4C4"/><circle cx="130.804" cy="83.3527" r="12.5457" stroke="#F5222D" stroke-width="8"/><circle cx="69.6166" cy="83.3527" r="12.5457" stroke="#F5222D" stroke-width="8"/></svg>