<svg width="200" height="182" fill="none" xmlns="http://www.w3.org/2000/svg"><path fill-rule="evenodd" clip-rule="evenodd" d="M122.561 139.722c1.066-1.263 1.6-3.034 1.6-5.31v-8.992h-14.173v8.992c0 2.276.577 4.047 1.731 5.31 1.154 1.264 2.983 1.895 5.486 1.895 2.504 0 4.289-.631 5.356-1.895zm-18.277 7.615c-2.351-2.795-3.527-6.787-3.527-11.975v-9.942H50.9492v-9.913h82.5078v20.503c0 4.726-1.241 8.495-3.722 11.305-2.482 2.81-6.949 4.215-12.152 4.215-5.683 0-10.948-1.398-13.299-4.193z" fill="#F5222D"/><path fill-rule="evenodd" clip-rule="evenodd" d="M56.6472 27.3276H182.267v-9.0181H56.6472v9.0181zM19.457 163.966h162.81V45.6372H19.457V163.966zm4.5362-145.871c2.5201 0 4.563 2.0266 4.563 4.5265 0 2.5-2.0429 4.5266-4.563 4.5266-2.5202 0-4.5631-2.0266-4.5631-4.5266 0-2.4999 2.0429-4.5265 4.5631-4.5265zm18.7326 0c2.5201 0 4.5631 2.0266 4.5631 4.5265 0 2.5-2.043 4.5266-4.5631 4.5266-2.5201 0-4.563-2.0266-4.563-4.5266 0-2.4999 2.0429-4.5265 4.563-4.5265zM9.30083 0C4.19477 0 0 3.96389 0 9.02305V172.928C0 177.985 4.19477 182 9.30083 182H190.639c5.109 0 9.361-4.015 9.361-9.072V9.02305C200 3.96389 195.748 0 190.639 0H9.30083z" fill="#C4C4C4"/><path fill-rule="evenodd" clip-rule="evenodd" d="M82.7918 90.408l-9.5528-9.5575 9.551-9.5534-6.3707-6.3632-9.5517 9.5522-9.5503-9.5522-6.3681 6.3632 9.5524 9.5577-9.5524 9.5532 6.3681 6.3684 9.5503-9.5527 9.5552 9.5527 6.369-6.3684zM151.471 90.408l-9.552-9.5575 9.551-9.5534-6.371-6.3632-9.552 9.5522-9.55-9.5522-6.368 6.3632 9.552 9.5577-9.552 9.5532 6.368 6.3684 9.55-9.5527 9.555 9.5527 6.369-6.3684z" fill="#F5222D"/></svg>