<svg width="16" height="16" viewBox="0 0 16 16" xmlns="http://www.w3.org/2000/svg">
<path fill-rule="evenodd" clip-rule="evenodd" d="M7.71743 6.94604C7.80755 6.92194 7.90228 6.90909 8 6.90909C8.60249 6.90909 9.09091 7.39751 9.09091 8C9.09091 8.60249 8.60249 9.09091 8 9.09091C7.39751 9.09091 6.90909 8.60249 6.90909 8C6.90909 7.90228 6.92194 7.80755 6.94604 7.71743L4.88703 5.65842L5.65842 4.88703L7.71743 6.94604ZM8.54545 3.12087V5.27273H7.45455V2H8C11.3137 2 14 4.68629 14 8C14 11.3137 11.3137 14 8 14C4.68629 14 2 11.3137 2 8C2 6.38359 2.64289 4.86766 3.76532 3.74941L4.53527 4.52224C3.61627 5.43782 3.09091 6.6766 3.09091 8C3.09091 10.7112 5.28878 12.9091 8 12.9091C10.7112 12.9091 12.9091 10.7112 12.9091 8C12.9091 5.47315 11 3.3922 8.54545 3.12087Z" fill-opacity="0.65"/>
</svg>
