<svg xmlns="http://www.w3.org/2000/svg" width="210" height="25" fill="none"><path fill="#fff" d="M56.325 11.702h-4.992V5.336h4.907c2.414 0 3.911 1.06 3.911 3.144 0 2.081-1.415 3.225-3.826 3.225v-.003zm4.036 3.472c2.976-.966 4.785-3.732 4.785-6.859 0-1.288-.434-3.481-1.748-4.859a9.095 9.095 0 00-6.74-2.408H46.38v22.086h4.952V15.99h3.826l4.91 7.062h5.783l-5.49-7.878zm23.568-1.351L80.934 6.64l-2.994 7.183h5.99zm-50.085.246l-2.995-7.185-2.995 7.186 5.99-.001zm104.954-13.02v4.368h-6.864v17.632h-4.948V5.416h-6.657v-4.37l18.469.002zM83.346.803l9.652 22.244H87.8l-2.08-4.938h-9.525l-2.08 4.938H69.08L78.73.804h4.618-.003zm114.449.244V18.6l11.025.042v4.49h-16.182V1.048l5.157.001zm-86.245 13.55l-.124-13.55h4.742v21.999h-4.157l-10.817-14.04V23.13h-4.868V1.047h4.576l10.648 13.55v.001zM20.034 1.048v4.369h-6.865V23.17h-4.95V5.538H1.356V1.046l18.679.002zm13.23 0l9.65 22.246h-5.2l-2.08-4.939h-9.526l-2.081 4.939h-5.034l9.651-22.247 4.62.001z"/><path fill="#FF272C" d="M176.927 19.302a7.341 7.341 0 01-1.777-.22c-3.512-.873-6.393-3.453-7.447-6.856v-.163c1.239-2.97 3.677-5.305 6.74-6.45a7.32 7.32 0 012.484-.434c3.949 0 7.196 3.187 7.196 7.061s-3.247 7.062-7.196 7.062zm-14.933-7.076c-1.052 3.403-3.934 5.983-7.446 6.856-.58.145-1.178.22-1.777.22-3.948 0-7.198-3.189-7.198-7.062s3.25-7.06 7.198-7.06c.848 0 1.689.146 2.485.433 3.06 1.145 5.501 3.479 6.738 6.45v.163zM176.987 0a12.48 12.48 0 00-4.168.717 16.25 16.25 0 00-7.973 5.937 16.223 16.223 0 00-7.969-5.938A12.467 12.467 0 00152.711 0c-6.733 0-12.273 5.435-12.273 12.041 0 6.605 5.54 12.04 12.271 12.04.714 0 1.425-.06 2.13-.181l.873-.203c3.703-1.11 6.92-3.4 9.136-6.511a17.295 17.295 0 009.136 6.509l.873.203c.702.123 1.417.183 2.13.184 6.73 0 12.271-5.436 12.271-12.04C189.258 5.435 183.717 0 176.987 0z"/></svg>