<svg width="12" height="14" xmlns="http://www.w3.org/2000/svg"><path fill-rule="evenodd" clip-rule="evenodd" d="M3.64 2c.068-.126.165-.258.3-.383C4.276 1.305 4.894 1 6 1s1.724.305 2.06.617c.135.125.232.257.3.383H3.64zM2.57 2c.1-.368.315-.77.69-1.117C3.824.361 4.706 0 6 0c1.294 0 2.176.361 2.74.883.375.347.59.749.69 1.117h1.37c.663 0 1.2.542 1.2 1.21v1.211c0 .669-.537 1.21-1.2 1.21h-.048L10.2 12.29c0 .668-.537 1.21-1.2 1.21H3c-.663 0-1.2-.542-1.198-1.16l-.554-6.708H1.2c-.663 0-1.2-.542-1.2-1.21V3.21C0 2.542.537 2 1.2 2h1.37zM1.2 3.21h9.6v1.211H1.2v-1.21zM3 12.29l-.548-6.658h1.123l.832 6.658H3zm1.583-6.658l.832 6.658h1.17l.832-6.658H4.583zM9 12.29H7.593l.832-6.658h1.123l-.546 6.607-.002.05z"/></svg>