<svg width="14" height="14" xmlns="http://www.w3.org/2000/svg"><path fill-rule="evenodd" clip-rule="evenodd" d="M13.4531 7.54688C13.7552 7.54688 14 7.30206 14 7s-.2448-.54688-.5469-.54688h-1.6042V5.3958h1.6042c.3021 0 .5469-.24481.5469-.54688 0-.30206-.2448-.54687-.5469-.54687h-1.6042v-1.6041c0-.30206-.2448-.54687-.5469-.54687H9.69795V.54688C9.69795.2448 9.45314 0 9.15108 0c-.30207 0-.54688.24481-.54688.54688v1.6042H7.54688V.54688C7.54688.2448 7.30206 0 7 0s-.54688.24481-.54688.54688v1.6042H5.3958V.54688C5.3958.2448 5.15099 0 4.84892 0c-.30206 0-.54687.24481-.54687.54688v1.6042h-1.6041c-.30206 0-.54687.24481-.54687.54687v1.6042H.54688C.2448 4.30215 0 4.54697 0 4.84903c0 .30196.24481.54687.54688.54687h1.6042v1.05722H.54688C.2448 6.45312 0 6.69794 0 7s.24481.54688.54688.54688h1.6042V8.6042H.54688C.2448 8.6042 0 8.84901 0 9.15108c0 .30206.24481.54687.54688.54687h1.6042v1.60425c0 .3019.24481.5468.54687.5468h1.6042v1.6041c0 .3021.24482.5469.54688.5469.30196 0 .54687-.2448.54687-.5469v-1.6042h1.05722v1.6042c0 .3021.24482.5469.54688.5469s.54688-.2448.54688-.5469v-1.6042H8.6042v1.6042c0 .3021.24481.5469.54688.5469.30206 0 .54687-.2448.54687-.5469v-1.6042H11.302c.3021 0 .5469-.2448.5469-.5469V9.69785h1.6042c.3021 0 .5469-.24482.5469-.54688 0-.30196-.2448-.54687-.5469-.54687h-1.6042V7.54688h1.6042zM3.24483 3.24483h7.51047v7.51037H3.24483V3.24483zm3.75171.70634c.27642 0 .49986.22345.49986.49987v2.99919c0 .27642-.22344.49987-.49986.49987s-.49987-.22395-.49987-.49987V4.45104c0-.27642.22343-.49987.49987-.49987zm-.35439 5.19224c-.045.04498-.07999.09996-.10498.16495-.02498.05998-.03998.12497-.03998.18996 0 .06499.015.12998.03998.18996.02501.05997.05998.11496.10498.16495.05048.045.10497.07999.16495.10497.05997.02498.12445.03998.18944.03998.06499 0 .12998-.015.18996-.03998.05997-.02501.11495-.06.16495-.10497.045-.04999.07999-.10498.10497-.16495.02498-.06.03998-.12497.03998-.18996 0-.06499-.015-.12998-.03998-.18996-.02501-.06497-.05997-.11997-.10497-.16495-.11447-.11449-.28992-.16996-.44939-.13497-.03499.00501-.06496.0145-.09496.03-.03.0105-.06.025-.08499.045-.0222.01109-.04167.02768-.06043.04367-.00657.00559-.01305.01112-.01953.0163z"/></svg>