<svg width="200" height="182" viewBox="0 0 200 182" fill="none" xmlns="http://www.w3.org/2000/svg">
<path fill-rule="evenodd" clip-rule="evenodd" d="M55.6474 27.3276H181.267V18.3095H55.6474V27.3276ZM18.4573 163.966H181.267V45.6372H18.4573V163.966ZM22.9931 18.095C25.5132 18.095 27.5562 20.1216 27.5562 22.6215C27.5562 25.1215 25.5132 27.1481 22.9931 27.1481C20.473 27.1481 18.43 25.1215 18.43 22.6215C18.43 20.1216 20.473 18.095 22.9931 18.095ZM41.7259 18.095C44.246 18.095 46.2889 20.1216 46.2889 22.6215C46.2889 25.1215 44.246 27.1481 41.7259 27.1481C39.2058 27.1481 37.1628 25.1215 37.1628 22.6215C37.1628 20.1216 39.2058 18.095 41.7259 18.095ZM9.30083 0C4.19477 0 0 3.96389 0 9.02305V172.928C0 177.985 4.19477 182 9.30083 182H190.639C195.748 182 200 177.985 200 172.928V9.02305C200 3.96389 195.748 0 190.639 0H9.30083Z" fill="#C4C4C4"/>
<circle cx="99.5366" cy="134.791" r="9.63877" fill="#F5222D"/>
<path fill-rule="evenodd" clip-rule="evenodd" d="M147.73 63.6119L71.3617 142.946L64.9517 136.776L141.32 57.4415L147.73 63.6119Z" fill="#F5222D"/>
<path fill-rule="evenodd" clip-rule="evenodd" d="M133.31 76.3677C123.378 70.6132 111.842 67.3191 99.5366 67.3191C80.8583 67.3191 63.9526 74.909 51.7355 87.1729L58.0268 93.4643C68.6338 82.8105 83.3152 76.2165 99.5366 76.2165C109.431 76.2165 118.752 78.6696 126.925 83.0009L133.31 76.3677ZM140.807 81.4092L134.595 87.8625C136.945 89.6205 139.158 91.5509 141.215 93.6348L147.507 87.3433C145.408 85.2218 143.17 83.2388 140.807 81.4092ZM119.367 90.8525C113.319 88.1186 106.605 86.5967 99.5366 86.5967C86.1816 86.5967 74.0953 92.0289 65.3668 100.804L71.6582 107.096C78.7766 99.9303 88.6385 95.494 99.5366 95.494C104.161 95.494 108.598 96.2926 112.718 97.7594L119.367 90.8525ZM121.069 101.913L127.328 95.4119C129.674 97.0705 131.865 98.9335 133.875 100.975L127.584 107.266C125.614 105.259 123.43 103.463 121.069 101.913ZM105.116 105.657C103.309 105.313 101.444 105.133 99.5366 105.133C91.3001 105.133 83.8479 108.49 78.4738 113.911L84.7653 120.203C87.9466 116.982 92.1737 114.796 96.8958 114.196L105.116 105.657ZM107.772 115.728L114.227 109.021C116.64 110.4 118.841 112.107 120.768 114.083L114.476 120.375C112.583 118.414 110.309 116.825 107.772 115.728Z" fill="#F5222D"/>
</svg>
