<svg width="16" height="16" fill="none" xmlns="http://www.w3.org/2000/svg"><path fill-rule="evenodd" clip-rule="evenodd" d="M15.8317 7.6849a1.3328 1.3328 0 010 1.2968c-1.5475 2.7806-4.4621 4.6848-7.8316 4.6848-3.3697 0-6.2844-1.9042-7.8318-4.6848a1.3333 1.3333 0 010-1.2968C1.7157 4.9042 4.6303 3 8 3c3.3695 0 6.2841 1.9042 7.8316 4.6849zM8.0001 4.3333c2.8486 0 5.3357 1.6088 6.6665 4-1.3308 2.3911-3.8179 3.9999-6.6666 3.9999s-5.3359-1.6088-6.6665-4C2.664 5.9422 5.1513 4.3334 8 4.3334zm1.3333 4c0 .7364-.597 1.3333-1.3333 1.3333-.7364 0-1.3334-.597-1.3334-1.3333C6.6667 7.5969 7.2637 7 8.0001 7c.7363 0 1.3333.5969 1.3333 1.3333zm1.3333 0c0 1.4728-1.1939 2.6666-2.6667 2.6666-1.4727 0-2.6666-1.1938-2.6666-2.6666 0-1.4728 1.1939-2.6667 2.6666-2.6667 1.4728 0 2.6667 1.1939 2.6667 2.6667z" fill="#5C606C"/></svg>