<svg width="16" height="16" xmlns="http://www.w3.org/2000/svg"><path opacity=".65" fill-rule="evenodd" clip-rule="evenodd" d="M13.8738 7.5137a.9998.9998 0 010 .9726C12.7132 10.5718 10.5272 12 8 12c-2.5273 0-4.7133-1.4282-5.8739-3.5137a1 1 0 010-.9726C3.2867 5.4282 5.4727 4 8 4c2.5272 0 4.7132 1.4282 5.8738 3.5137zM8 5c2.1365 0 4.0019 1.2066 5 3-.9981 1.7934-2.8635 3-5 3-2.1366 0-4.002-1.2066-5-3 .998-1.7934 2.8634-3 5-3zm1 3c0 .5523-.4477 1-1 1s-1-.4477-1-1 .4477-1 1-1 1 .4477 1 1zm1 0c0 1.1046-.8954 2-2 2s-2-.8954-2-2 .8954-2 2-2 2 .8954 2 2z"/></svg>