<svg width="16" height="16" xmlns="http://www.w3.org/2000/svg"><path fill-rule="evenodd" clip-rule="evenodd" d="M14.8521 7.0442a.6363.6363 0 10-.977-.8156C12.7541 7.5716 10.5797 8.5455 8 8.5455s-4.754-.974-5.8751-2.317a.6364.6364 0 10-.977.8157c.3197.383.698.7343 1.125 1.0486v1.089a.6364.6364 0 001.2727 0v-.3295a9.29 9.29 0 001.2727.4968v1.1054a.6363.6363 0 001.2727 0v-.7999a10.994 10.994 0 001.273.1458l-.0003.0178v1.2728a.6363.6363 0 001.2728 0V9.8182l-.0003-.0178c.4337-.0244.859-.0736 1.273-.1458v.7999a.6364.6364 0 001.2728 0V9.3491a9.2909 9.2909 0 001.2727-.497v.3297a.6363.6363 0 101.2727 0V8.0926c.4268-.3143.8051-.6655 1.1247-1.0484z"/></svg>