<svg width="16" height="16" xmlns="http://www.w3.org/2000/svg"><path fill-rule="evenodd" clip-rule="evenodd" d="M13.3837 8.3204a.5.5 0 10-.7677-.6408C11.7352 8.7348 10.0268 9.5 7.9999 9.5c-2.027 0-3.7354-.7652-4.6162-1.8204a.5.5 0 10-.7677.6408c.2512.301.5485.577.884.824V10a.5.5 0 001 0v-.2589c.3151.1512.6497.282 1 .3904V11a.5.5 0 001 0v-.6285a8.6184 8.6184 0 001.0002.1145L7.5 10.5v1a.5.5 0 001 0v-1l-.0002-.014A8.6406 8.6406 0 009.5 10.3714V11a.5.5 0 001 0v-.8686a7.3096 7.3096 0 001-.3904V10a.5.5 0 101 0v-.8559c.3354-.2469.6325-.5228.8837-.8237z"/></svg>