<svg width="16" height="16" xmlns="http://www.w3.org/2000/svg"><path d="M8 0C3.58125 0 0 3.58125 0 8c0 4.4188 3.58125 8 8 8 4.4188 0 8-3.5812 8-8 0-4.41875-3.5812-8-8-8zm4.8609 12.8609c-.6312.6313-1.3671 1.1282-2.1859 1.4735-.84687.3594-1.74687.5406-2.675.5406-.92812 0-1.82812-.1812-2.675-.5391-.81875-.3468-1.55312-.8421-2.18594-1.4734-.63125-.6312-1.12812-1.3672-1.47344-2.1859C1.30625 9.82812 1.125 8.92813 1.125 8c0-.92812.18125-1.82812.53906-2.675.34688-.81875.84219-1.55312 1.47344-2.18594.63125-.63125 1.36719-1.12812 2.18594-1.47344C6.17188 1.30625 7.07188 1.125 8 1.125c.92813 0 1.82813.18125 2.675.53906.8188.34688 1.5531.84219 2.1859 1.47344.6313.63125 1.1282 1.36719 1.4735 2.18594.3594.84844.5406 1.74844.5406 2.67656 0 .92813-.1812 1.82813-.5391 2.675-.3468.8188-.8421 1.5547-1.475 2.1859zM9.84688 11.025H8.51562V5.55469c0-.31094-.25156-.5625-.5625-.5625h-1.5c-.31093 0-.5625.25156-.5625.5625s.25157.5625.5625.5625h.9375V11.025H6.05938c-.31094 0-.5625.2516-.5625.5625s.25156.5625.5625.5625H9.84688c.31092 0 .56252-.2516.56252-.5625s-.2516-.5625-.56252-.5625zM7.39062 3.44531c0 .31066.25185.5625.5625.5625.31067 0 .5625-.25184.5625-.5625s-.25183-.5625-.5625-.5625c-.31065 0-.5625.25184-.5625.5625z"/></svg>