<svg width="16" height="16" viewBox="0 0 16 16"  xmlns="http://www.w3.org/2000/svg">
<path d="M8 1C8.945 1 9.86136 1.18455 10.7236 1.54886C11.5573 1.90205 12.305 2.40636 12.9493 3.04909C13.592 3.69182 14.098 4.44114 14.4495 5.27477C14.8155 6.13864 15 7.055 15 8C15 8.945 14.8155 9.86136 14.4511 10.7236C14.098 11.5573 13.5936 12.305 12.9509 12.9493C12.3082 13.592 11.5589 14.098 10.7252 14.4495C9.86136 14.8155 8.945 15 8 15C7.055 15 6.13864 14.8155 5.27636 14.4511C4.44273 14.098 3.695 13.5936 3.05068 12.9509C2.40795 12.3082 1.90205 11.5589 1.55045 10.7252C1.18455 9.86136 1 8.945 1 8C1 7.055 1.18455 6.13864 1.54886 5.27636C1.90205 4.44273 2.40636 3.695 3.04909 3.05068C3.69182 2.40795 4.44114 1.90205 5.27477 1.55045C6.13864 1.18455 7.055 1 8 1Z" />
<path fill-rule="evenodd" clip-rule="evenodd" d="M12.4776 5.30071C12.0871 4.91018 11.4539 4.91018 11.0634 5.30071L7.17529 9.18881L5.28718 7.30071C4.89666 6.91018 4.2635 6.91018 3.87297 7.30071C3.48245 7.69123 3.48245 8.3244 3.87297 8.71492L6.22966 11.0716C6.48604 11.328 6.84699 11.4161 7.17521 11.3358C7.50346 11.4161 7.86448 11.3281 8.12089 11.0716L12.4776 6.71492C12.8681 6.3244 12.8681 5.69123 12.4776 5.30071Z" fill="white"/>
</svg>
