<svg width="16" height="16" xmlns="http://www.w3.org/2000/svg"><path d="M7.5804 12.8625a.6211.6211 0 00.875 0l2.7839-2.7839a.6175.6175 0 000-.8732.6133.6133 0 00-.4357-.1804.6132.6132 0 00-.4357.1804l-1.7304 1.7303V.6179A.618.618 0 008.0196 0a.618.618 0 00-.6178.6179v10.3178L5.6714 9.2054c-.241-.2411-.6321-.2411-.8714 0a.6192.6192 0 00-.0018.8732l2.7822 2.7839zm7.8017-2.5696a.618.618 0 00-.6178.6178V14.4a.3685.3685 0 01-.3679.3679H1.6018a.3685.3685 0 01-.3679-.3679v-3.4911a.618.618 0 00-.6178-.6178c-.3411 0-.6161.2785-.6161.6178v3.9804c0 .6125.4982 1.1089 1.109 1.1089H14.891c.6125 0 1.1089-.4982 1.1089-1.1089v-3.9804c0-.3393-.2768-.616-.6179-.616z"/></svg>